<svg width="64" height="64" viewBox="0 0 64 64" fill="none" xmlns="http://www.w3.org/2000/svg">
  <g stroke="currentColor" stroke-width="2.8" stroke-linecap="round" stroke-linejoin="round">
    <path d="M32 10V54"/>
    <path d="M15 24C20 17 27 14 32 14C37 14 44 17 49 24"/>
    <path d="M15 40C20 47 27 50 32 50C37 50 44 47 49 40"/>
    <path d="M20 19C25 25 27 29 32 32C37 35 39 39 44 45"/>
    <path d="M44 19C39 25 37 29 32 32C27 35 25 39 20 45"/>
    <ellipse cx="32" cy="32" rx="11" ry="8"/>
    <circle cx="32" cy="32" r="2.5" fill="currentColor" stroke="none"/>
  </g>
</svg>
